PathFileType	4	(X/Y/Z)	OpenSim_Sub11_CSPreOp_Gyro.trc
DataRate	CameraRate	NumFrames	NumMarkers	Units	OrigDataRate	OrigDataStartFrame	OrigNumFrames
100	100	27	8	m	100	1388	3701
Frame#	Time	torso_imu_offset_imu	pelvis_imu_offset_imu	tibia_r_imu_offset_imu	femur_r_imu_offset_imu	tibia_l_imu_offset_imu	femur_l_imu_offset_imu	toes_r_imu_offset_imu	toes_l_imu_offset_imu
				X1	Y1	Z1	X2	Y2	Z2	X3	Y3	Z3	X4	Y4	Z4	X5	Y5	Z5	X6	Y6	Z6	X7	Y7	Z7	X8		Y8	Z8	

1388	13.87000000	-0.07398700	-0.00677100	-0.07603000	-0.12391500	-0.01849600	0.03341000	0.08960300	-0.07910500	3.52647000	0.01795300	-0.04642000	-0.83464000	-0.03828700	0.04288000	0.36768200	-0.28181800	-0.17385900	0.33584800	-0.43656300	1.49064700	0.99185000	-0.01086600	-0.01616000	0.05895500
1389	13.88000000	-0.07349500	0.00710100	-0.06881100	-0.11376800	-0.03164300	0.02618100	0.34012000	0.06188400	3.32591700	0.07747800	-0.14700100	-0.83752000	-0.07632200	0.05261200	0.40109500	-0.31176700	-0.16853500	0.33581800	0.21638600	1.47708200	0.95421500	-0.00886000	-0.03909900	0.04799600
1390	13.89000000	-0.06971500	0.01976200	-0.06910700	-0.10560100	-0.04454100	0.02604700	0.63811000	0.19361400	3.03060600	-0.00618300	-0.26397400	-0.77628700	-0.06036900	0.05970800	0.41254600	-0.35694500	-0.14868100	0.33284600	-0.32631800	1.53490800	1.11437900	0.04061800	-0.03863100	0.04389000
1391	13.90000000	-0.06515000	0.03527300	-0.07110600	-0.10750300	-0.05542500	0.03097200	0.93892100	0.34761500	2.68141000	-0.21050100	-0.37109100	-0.71059100	-0.04333700	0.06897300	0.40297200	-0.38251500	-0.14977100	0.34548800	-0.60254100	1.54657900	1.32875800	-0.01624500	-0.06968400	0.05842500
1392	13.91000000	-0.06063100	0.04686300	-0.07564900	-0.11204700	-0.06723800	0.03206500	1.07562900	0.44606600	2.30340000	-0.48779900	-0.43305000	-0.62862100	-0.08486300	0.06555000	0.40568400	-0.38932500	-0.15860800	0.34530000	-0.28031800	1.45675400	1.43608900	0.02814900	-0.05929500	0.05860300
1393	13.92000000	-0.06335500	0.05960100	-0.07168500	-0.11450300	-0.06562700	0.04595600	1.05470500	0.41318200	1.96584400	-0.71738600	-0.46532200	-0.49409800	-0.11167700	0.07192800	0.42575500	-0.37608600	-0.17487700	0.34691000	0.30565700	1.29700600	1.44258500	-0.01350400	-0.08314500	0.07331100
1394	13.93000000	-0.05745300	0.07137800	-0.07394000	-0.11767600	-0.07170000	0.05620600	1.04524300	0.34010800	1.70918200	-0.84552700	-0.49230400	-0.35845100	-0.07890100	0.07098300	0.45496900	-0.37007000	-0.18138100	0.35869200	1.21886400	1.07976800	1.45337000	0.01017000	-0.09037400	0.08366900
1395	13.94000000	-0.04229300	0.08083600	-0.07757700	-0.12934300	-0.08212000	0.05927500	1.25218200	0.42035200	1.47192100	-0.84526800	-0.50266600	-0.24129300	-0.05189500	0.08117200	0.47463700	-0.37179200	-0.19129900	0.36671800	1.66428200	0.87326000	1.51352100	-0.03552500	-0.08176800	0.09725200
1396	13.95000000	-0.03855700	0.09482200	-0.07698600	-0.13006800	-0.09340800	0.06537300	1.59999700	0.56854800	1.14619700	-0.72676500	-0.46879000	-0.17534400	-0.01796600	0.09001100	0.48024900	-0.37370100	-0.20812900	0.36399300	1.20877300	0.83229400	1.50652800	0.00460600	-0.10035200	0.09748200
1397	13.96000000	-0.03264900	0.11315200	-0.07495900	-0.11649100	-0.09949100	0.06142800	1.74365000	0.50544900	0.79166900	-0.49787600	-0.43208600	-0.13671300	0.04029200	0.09662600	0.46775800	-0.35189500	-0.22954100	0.36465700	1.58997500	0.70523500	1.36848200	-0.00435900	-0.08235300	0.10938100
1398	13.97000000	-0.02972300	0.12559900	-0.07180200	-0.09425600	-0.10272700	0.06058400	1.66058600	0.40765200	0.44229600	-0.14591500	-0.36867200	-0.16441000	0.08507400	0.10373800	0.45863100	-0.30059400	-0.24531900	0.36585000	1.68324100	0.45219100	1.15141300	-0.03310300	-0.14210600	0.12087100
1399	13.98000000	-0.03053000	0.13322400	-0.06326600	-0.07348500	-0.12128300	0.05241500	1.70276300	0.29838400	0.08492000	0.27046300	-0.27623100	-0.22999600	0.07698600	0.10405900	0.46798700	-0.23664100	-0.23385700	0.35829500	1.44034000	0.09098900	0.91768500	-0.02041400	-0.10147200	0.13051100
1400	13.99000000	-0.02052600	0.14033500	-0.06204800	-0.03948600	-0.12821900	0.04089100	1.71687300	0.09538400	-0.27215700	0.69573800	-0.18746700	-0.29082400	0.05429400	0.10345000	0.49214000	-0.15272500	-0.18318300	0.33887700	1.17975100	-0.25869600	0.68567500	-0.00620400	-0.12985200	0.13916300
1401	14	-0.02159700	0.15142100	-0.05876000	-0.00279000	-0.14233100	0.03631900	1.57500200	-0.05297000	-0.60449000	1.03211000	-0.09696600	-0.34586500	0.03191900	0.12417700	0.49792100	-0.05954700	-0.15084800	0.31398400	0.58731900	-0.54225400	0.49870800	-0.00871800	-0.10504000	0.14133300
1402	14.01000000	-0.03476500	0.17492200	-0.05184700	0.03531100	-0.16635200	0.03203500	1.38877600	-0.13763300	-0.85508500	1.20976300	-0.02614300	-0.39181900	0.04349400	0.13964500	0.49382700	0.02902900	-0.12561800	0.29502200	-0.03703200	-0.73431600	0.29640300	-0.01147100	-0.15806200	0.15966200
1403	14.02000000	-0.04187700	0.20676900	-0.04188800	0.09544100	-0.19365000	0.02961600	1.08749900	-0.20274000	-1.05365600	1.20162300	0.01062200	-0.43100000	0.04404000	0.13816300	0.49749800	0.10760700	-0.10612800	0.27395500	0.50433000	-0.99476600	0.15431600	-0.00979800	-0.13607800	0.17345500
1404	14.03000000	-0.04424000	0.22339700	-0.02963200	0.16631100	-0.23159600	0.03188500	0.65159900	-0.23526300	-1.15265800	1.04942900	-0.01707100	-0.46395100	0.01050700	0.15956400	0.51220900	0.17809200	-0.10222500	0.25247900	2.12151900	-0.65372900	0.12981500	-0.01680000	-0.17184100	0.18757500
1405	14.04000000	-0.03354500	0.23225000	-0.01398800	0.22973300	-0.25574000	0.04228900	0.01925800	-0.33893900	-0.89200600	0.79636300	-0.11633200	-0.51493000	0.00838600	0.17043500	0.52947200	0.22658400	-0.11792500	0.25696100	1.19070200	-0.82058000	0.10916000	-0.01244000	-0.18639500	0.20713000
1406	14.05000000	-0.00641600	0.23215700	-0.00242300	0.31397800	-0.26229800	0.05059100	-0.98038400	-0.63615700	-0.08332700	0.49257700	-0.19941400	-0.56721600	-0.00676200	0.17063500	0.54746400	0.24768200	-0.12824900	0.23348700	-1.07427100	-0.49595100	0.01608500	-0.02595000	-0.18402100	0.22750100
1407	14.06000000	0.00666900	0.23142800	0.01311100	0.36327100	-0.28551500	0.05501800	-1.75776000	-0.75652700	0.94907800	0.19474300	-0.23399600	-0.60862600	-0.01352200	0.16866300	0.57435500	0.25718000	-0.13907800	0.21425300	0.51378800	-0.55870600	0.03693900	-0.04391900	-0.18435000	0.24757200
1408	14.07000000	-0.00639100	0.25838000	0.02043900	0.37676300	-0.29954400	0.06152900	-0.98643300	-0.24849200	1.11629100	-0.08083200	-0.25436100	-0.59863400	-0.00156700	0.17257100	0.59909400	0.25821300	-0.14985400	0.21525100	-0.51881400	-0.88328300	0.03895900	-0.06684700	-0.17817700	0.25549100
1409	14.08000000	-0.02874200	0.29466400	0.04114800	0.34260400	-0.28657100	0.05996200	0.47742800	0.17279000	0.35857600	-0.33793300	-0.22415500	-0.57534800	0.00942500	0.17049600	0.62126800	0.24324100	-0.14737600	0.19733600	-0.56104100	-0.99512100	-0.00706800	-0.05131700	-0.22946800	0.26444000
1410	14.09000000	-0.02069000	0.31172300	0.03928100	0.29969300	-0.26500700	0.06339100	0.39532500	-0.01869400	-0.33601700	-0.65209400	-0.15467400	-0.58612300	0.01613700	0.15368300	0.64655100	0.19326900	-0.10844600	0.14873900	-0.42517500	-1.02549700	-0.03999500	-0.08259600	-0.22998700	0.28977200
1411	14.10000000	0.00094400	0.31391100	0.03449700	0.26396000	-0.25750300	0.05860200	-0.26130800	-0.32375900	-0.55288000	-1.01721500	-0.07823000	-0.55605300	0.01400200	0.14145300	0.69803400	0.16027400	-0.07529200	0.09029100	-0.60788700	-1.07598200	-0.02028400	-0.09466300	-0.21902900	0.30091600
1412	14.11000000	0.02308800	0.30259300	0.03594900	0.23660500	-0.23854700	0.04130700	-0.23290300	-0.38609000	-0.46470200	-1.33392200	-0.05803300	-0.43539300	0.04285100	0.13471400	0.74474700	0.16331200	-0.03162200	0.05364900	-0.50337600	-1.00340200	-0.00838900	-0.07961000	-0.23848400	0.31491700
1413	14.12000000	0.05505800	0.28579600	0.03235900	0.20291100	-0.20000900	0.01846400	0.32670100	-0.21767500	-0.31858800	-1.32129000	-0.02114000	-0.31328800	0.06086000	0.12541700	0.76858200	0.19228700	0.02618700	0.02356000	-0.47200900	-0.93888200	0.03137500	-0.11897900	-0.29560900	0.37626900
1414	14.13000000	0.07551900	0.25743400	0.03162600	0.15481500	-0.16939800	0.00636800	0.76724200	-0.05812500	-0.24870000	-0.98342100	0.06843100	-0.28840100	0.05992000	0.09842900	0.79498700	0.22796900	0.08377200	-0.00619900	-0.35486900	-0.85107300	0.02456800	-0.25945300	-0.36450400	0.43573200
